<svg xmlns="http://www.w3.org/2000/svg" xmlns:xlink="http://www.w3.org/1999/xlink" width="22" height="22" viewBox="0 0 22 22">    <defs>        <path id="a" d="M15.284 14.971a.598.598 0 0 1-.264 1.135H1.974c-.183-1.158-.26-2.517-.26-4.106C1.714 3.771 3.771 1.714 12 1.714S22.286 3.771 22.286 12c0 .604-.011 1.175-.035 1.714h-5.223l-2.29-2.915c-.273-.347-.724-.354-1.013-.009l-1.655 1.973c-.287.342-.744.333-1.013-.01L8.272 9.2c-.272-.347-.714-.337-.976.008L2.93 14.971h12.354zm6.888-.06c-.527 5.819-3.015 7.375-10.172 7.375-6.056 0-8.77-1.115-9.78-4.983h8.667a.597.597 0 0 1 0 1.196h-3.6a.598.598 0 0 0 0 1.196h7.34a.599.599 0 0 0 0-1.196h-.3a.599.599 0 0 1 0-1.196h5.853a.597.597 0 0 0 0-1.197h-1.72a.597.597 0 0 1 0-1.196h3.712zm-8.195-5.816a1.979 1.979 0 0 0 1.974-1.977 1.979 1.979 0 0 0-1.974-1.975c-1.09 0-1.977.886-1.977 1.975 0 1.09.887 1.977 1.977 1.977z"/>    </defs>    <g fill="none" fill-rule="evenodd" transform="translate(-1 -1)">        <path d="M0 0h24v24H0z"/>        <use fill="#FFF" xlink:href="#a"/>    </g></svg>