<?xml version="1.0" standalone="no"?><!DOCTYPE svg PUBLIC "-//W3C//DTD SVG 1.1//EN" "http://www.w3.org/Graphics/SVG/1.1/DTD/svg11.dtd"><svg t="1591088218812" class="icon" viewBox="0 0 1024 1024" version="1.1" xmlns="http://www.w3.org/2000/svg" p-id="8158" xmlns:xlink="http://www.w3.org/1999/xlink" width="16" height="16"><defs><style type="text/css"></style></defs><path d="M953.107692 492.307692c-31.507692-3.938462-55.138462 19.692308-55.138461 47.261539-7.876923 98.461538-51.2 189.046154-122.092308 252.061538-70.892308 66.953846-165.415385 102.4-263.876923 102.4-78.769231 0-149.661538-23.630769-212.676923-63.015384-47.261538-31.507692-86.646154-70.892308-114.215385-118.153847h59.076923c27.569231 0 51.2-23.630769 51.2-51.2s-23.630769-51.2-51.2-51.2h-169.353846c-15.753846 0-27.569231 3.938462-39.384615 15.753847-11.815385 11.815385-15.753846 23.630769-15.753846 39.384615v169.353846c0 27.569231 23.630769 51.2 51.2 51.2 27.569231 0 51.2-23.630769 51.2-51.2v-19.692308c31.507692 39.384615 70.892308 74.830769 114.215384 106.338462 82.707692 55.138462 173.292308 82.707692 271.753846 82.707692 126.030769 0 244.184615-47.261538 334.769231-133.907692 90.584615-82.707692 145.723077-200.861538 153.6-322.953846 0-15.753846-3.938462-27.569231-11.815384-39.384616-3.938462-7.876923-15.753846-15.753846-31.507693-15.753846zM988.553846 153.6c-7.876923-7.876923-23.630769-15.753846-35.446154-15.753846-15.753846 0-27.569231 3.938462-35.446154 15.753846-11.815385 11.815385-15.753846 23.630769-15.753846 39.384615v15.753847c-31.507692-39.384615-70.892308-74.830769-114.215384-106.338462-78.769231-55.138462-173.292308-82.707692-271.753846-82.707692-126.030769 0-244.184615 47.261538-334.769231 133.907692-90.584615 82.707692-145.723077 200.861538-153.6 322.953846-3.938462 27.569231 19.692308 55.138462 47.261538 55.138462h3.938462c27.569231 0 51.2-19.692308 51.2-47.261539 7.876923-98.461538 51.2-189.046154 122.092307-252.061538 70.892308-66.953846 165.415385-102.4 263.876924-102.4 74.830769 0 149.661538 23.630769 212.676923 63.015384 47.261538 31.507692 86.646154 70.892308 114.215384 118.153847h-59.076923c-27.569231 0-51.2 23.630769-51.2 51.2s23.630769 51.2 51.2 51.2h169.353846c15.753846 0 27.569231-3.938462 39.384616-15.753847 11.815385-11.815385 15.753846-23.630769 15.753846-39.384615v-169.353846c-3.938462-11.815385-7.876923-27.569231-19.692308-35.446154z" p-id="8159" fill="#ffffff"></path></svg>