<svg xmlns="http://www.w3.org/2000/svg" xmlns:xlink="http://www.w3.org/1999/xlink" width="28" height="28" viewBox="0 0 28 28">  <defs>    <rect id="ic_library-a" width="36" height="36" x="0" y="0"/>    <path id="ic_library-c" d="M13.2193001,14.7157632 L13.2969221,14.8041264 L16.4360967,18.808318 C16.7659002,19.2290007 17.2781718,19.262153 17.6376258,18.9215468 L17.7177114,18.8363169 L19.5581645,16.6427942 C19.8935301,16.2430926 20.4109342,16.2262188 20.7619002,16.5806359 L20.8397793,16.6690101 L23.4564296,20 L30.8146554,20 C31.1757225,20 31.1982892,21.2264226 30.8823555,21.3797254 L30.8146554,21.3953963 L25.1287985,21.3953963 C24.7436602,21.3953963 24.4322097,21.7078979 24.4322097,22.0929193 C24.4322097,22.446498 24.6939147,22.7382566 25.0341867,22.7844276 L25.1287985,22.7907927 L27.1346004,22.7907927 C27.5197387,22.7907927 27.831306,23.1032942 27.831306,23.4890164 C27.831306,23.8420598 27.5695029,24.1340681 27.2292145,24.1802845 L27.1346004,24.1866561 L20.3068627,24.1866561 C19.9217245,24.1866561 19.6080552,24.4986905 19.6080552,24.8844127 C19.6080552,25.2374561 19.8716245,25.5294645 20.2122073,25.5756808 L20.3068627,25.5820525 L20.6562665,25.5820525 C21.0414048,25.5820525 21.3550741,25.8946708 21.3550741,26.2796923 C21.3550741,26.6329498 21.0915048,26.924976 20.750922,26.9711938 L20.6562665,26.9775656 L12.09202,26.9775656 C11.7068818,26.9775656 11.3942635,26.6650641 11.3942635,26.2796923 C11.3942635,25.9267559 11.6569497,25.6346583 11.9973852,25.5884263 L12.09202,25.5820525 L16.2931568,25.5820525 C16.6781783,25.5820525 16.9898624,25.269551 16.9898624,24.8844127 C16.9898624,24.530834 16.7279612,24.2391736 16.3877464,24.1930189 L16.2931568,24.1866561 L5.68837084,24.1866561 C5.32719424,24.1866561 5.3046207,22.959823 5.62065023,22.8064689 L5.68837084,22.7907927 L21.1150926,22.7907927 C21.500114,22.7907927 21.8137834,22.4786415 21.8137834,22.0929193 C21.8137834,21.8169873 21.6526793,21.5783023 21.4196652,21.4651987 L7.00936654,21.4666667 L12.0503269,14.813278 C12.3691303,14.3925004 12.8705351,14.3623472 13.2193001,14.7157632 Z M19.8978827,10 C21.1644788,10 22.2007847,11.0337752 22.2007847,12.3041673 C22.2007847,13.5770901 21.1644788,14.6108653 19.8978827,14.6108653 C18.6262253,14.6108653 17.5911847,13.5770901 17.5911847,12.3041673 C17.5911847,11.0337752 18.6262253,10 19.8978827,10 Z"/>  </defs>  <g fill="none" fill-rule="evenodd" transform="translate(-4 -4)">    <mask id="ic_library-b" fill="#fff">      <use xlink:href="#ic_library-a"/>    </mask>    <path stroke="#FFF" stroke-width="2" d="M18,5 C28.1522847,5 31,7.84771525 31,18 C31,28.1522847 28.1522847,31 18,31 C7.84771525,31 5,28.1522847 5,18 C5,7.84771525 7.84771525,5 18,5 Z" mask="url(#ic_library-b)"/>    <use fill="#FFF" xlink:href="#ic_library-c"/>  </g></svg>