<?xml version="1.0" standalone="no"?><!DOCTYPE svg PUBLIC "-//W3C//DTD SVG 1.1//EN" "http://www.w3.org/Graphics/SVG/1.1/DTD/svg11.dtd"><svg t="1594456290201" class="icon" viewBox="0 0 1024 1024" version="1.1" xmlns="http://www.w3.org/2000/svg" p-id="10052" xmlns:xlink="http://www.w3.org/1999/xlink" width="16" height="16"><defs><style type="text/css"></style></defs><path d="M613.8 321.2C587.6 295 551.7 279 511.5 279c-39.9 0-76 16.1-102 42.3-26.2 26.2-42.4 62.3-42.4 102.2 0 39.7 16.2 76 42.4 102.2v0.2c26 26 62.1 42.2 102 42.2 40.2 0 76-16.2 102.2-42.4 26.2-26.2 42.4-62.4 42.4-102.2 0-39.9-16.2-76-42.4-102.2h0.1z m-36.9 268.3S550.2 605 511.5 605c-38.8 0-65.1-15.5-65.1-15.5-39.1 0-74.4 16.1-99.9 42-25.9 25.5-41.6 61-41.6 99.9V745h414v-13.6c0-38.9-16.1-74.4-41.8-99.9v-0.3c-25.8-25.6-61.1-41.7-100.2-41.7z m0 0" p-id="10053" fill="#ffffff"></path><path d="M512 85.3c235.3 0 426.7 191.4 426.7 426.7S747.3 938.7 512 938.7 85.3 747.3 85.3 512 276.7 85.3 512 85.3M512 0C229.2 0 0 229.2 0 512s229.2 512 512 512 512-229.2 512-512S794.8 0 512 0z" p-id="10054" fill="#ffffff"></path></svg>