<?xml version="1.0" standalone="no"?><!DOCTYPE svg PUBLIC "-//W3C//DTD SVG 1.1//EN" "http://www.w3.org/Graphics/SVG/1.1/DTD/svg11.dtd"><svg t="1592804455450" class="icon" viewBox="0 0 1024 1024" version="1.1" xmlns="http://www.w3.org/2000/svg" p-id="6336" xmlns:xlink="http://www.w3.org/1999/xlink" width="16" height="16"><defs><style type="text/css"></style></defs><path d="M592.187077 5.356308c29.341538 0 54.429538 21.031385 59.588923 49.939692l14.729846 82.628923a402.904615 402.904615 0 0 1 77.312 43.323077l77.036308-30.641231a60.534154 60.534154 0 0 1 74.791384 25.993846l88.65477 153.560616a60.534154 60.534154 0 0 1-13.39077 76.563692L909.784615 458.161231a407.512615 407.512615 0 0 1 1.10277 93.735384l61.952 48.915693c23.552 18.628923 29.932308 51.712 14.887384 77.74523l-88.654769 153.6a60.534154 60.534154 0 0 1-73.058462 26.624l-73.570461-26.624c-25.521231 19.298462-53.444923 35.603692-83.180308 48.443077l-11.264 76.957539a60.534154 60.534154 0 0 1-59.864615 51.790769h-177.348923A60.534154 60.534154 0 0 1 361.156923 959.409231l-14.257231-79.950769a403.298462 403.298462 0 0 1-78.926769-46.119385l-75.382154 29.932308a60.534154 60.534154 0 0 1-74.830769-25.954462l-88.615385-153.6a60.534154 60.534154 0 0 1 13.39077-76.563692l65.45723-55.138462a408.260923 408.260923 0 0 1 0.236308-86.212923L41.511385 413.144615a60.534154 60.534154 0 0 1-14.887385-77.784615l88.654769-153.6a60.534154 60.534154 0 0 1 73.058462-26.624l81.92 29.656615a403.298462 403.298462 0 0 1 72.231384-42.41723l12.445539-85.188923A60.534154 60.534154 0 0 1 414.838154 5.356308h177.348923z m-84.283077 292.627692a211.889231 211.889231 0 1 0 0 423.778462 211.889231 211.889231 0 0 0 0-423.778462z" p-id="6337" fill="#ffffff"></path></svg>