<svg xmlns="http://www.w3.org/2000/svg" width="40" height="22" viewBox="0 0 40 22">    <g fill="none" fill-rule="evenodd">        <path d="M10 0h22v22H10z"/>        <path fill="#FFF" fill-rule="nonzero" d="M21 2.75c6.538 0 8.25 1.712 8.25 8.25s-1.712 8.25-8.25 8.25-8.25-1.712-8.25-8.25S14.462 2.75 21 2.75zm0 .75c-6.06 0-7.5 1.44-7.5 7.5 0 6.06 1.44 7.5 7.5 7.5 6.06 0 7.5-1.44 7.5-7.5 0-6.06-1.44-7.5-7.5-7.5z"/>        <path fill="#FFF" d="M27.696 13.86h-1.338a.465.465 0 0 1 0-.93h5.089a.465.465 0 0 0 0-.93H21.246a.465.465 0 1 0 0 .93h2.437a.466.466 0 0 1 0 .93H12.465a.465.465 0 0 0 0 .931h8.003a.465.465 0 0 1 0 .93h-2.8a.465.465 0 0 0 0 .93h5.709a.466.466 0 0 0 0-.93h-.233a.466.466 0 0 1 0-.93h4.552a.465.465 0 0 0 0-.93"/>        <path fill="#FFF" d="M36.119 13.86h-1.203c-.23 0-.418-.208-.418-.465 0-.256.187-.465.418-.465h4.577c.231 0 .418-.208.418-.465S39.724 12 39.493 12h-9.176c-.231 0-.418.208-.418.465s.187.465.418.465h2.192c.231 0 .42.209.42.465 0 .257-.189.466-.42.466H22.42c-.232 0-.419.208-.419.465s.187.465.418.465h7.2c.23 0 .417.208.417.465s-.187.465-.418.465h-2.519c-.231 0-.418.209-.418.465 0 .257.187.466.418.466h5.136c.23 0 .419-.209.419-.466 0-.256-.188-.465-.419-.465h-.21c-.23 0-.419-.208-.419-.465s.188-.465.42-.465h4.094c.231 0 .418-.208.418-.465s-.187-.465-.418-.465M15.696 13.86h-1.338a.465.465 0 0 1 0-.93h5.089a.465.465 0 0 0 0-.93H9.246a.465.465 0 1 0 0 .93h2.437a.466.466 0 0 1 0 .93H.465a.465.465 0 0 0 0 .931h8.003a.465.465 0 0 1 0 .93h-2.8a.465.465 0 0 0 0 .93h5.709a.466.466 0 0 0 0-.93h-.233a.466.466 0 0 1 0-.93h4.552a.465.465 0 0 0 0-.93"/>        <path fill="#FFF" d="M20.89 11.458c-.287.34-.739.336-1.016-.018l-1.938-2.472c-.275-.35-.711-.353-.976-.004l-3.293 4.347H25.4l-2.436-3.1c-.275-.35-.722-.366-1.015-.016l-1.06 1.263zM22.538 8.74a1.54 1.54 0 0 0 1.535-1.537c0-.847-.69-1.536-1.535-1.536-.848 0-1.538.689-1.538 1.536 0 .848.69 1.538 1.538 1.538"/>    </g></svg>