<?xml version="1.0" standalone="no"?><!DOCTYPE svg PUBLIC "-//W3C//DTD SVG 1.1//EN" "http://www.w3.org/Graphics/SVG/1.1/DTD/svg11.dtd"><svg t="1592050747862" class="icon" viewBox="0 0 1024 1024" version="1.1" xmlns="http://www.w3.org/2000/svg" p-id="5170" xmlns:xlink="http://www.w3.org/1999/xlink" width="200" height="200"><defs><style type="text/css"></style></defs><path d="M106.666667 861.866667L55.466667 853.333333 42.666667 810.666667c-29.866667-98.133333-42.666667-196.266667-42.666667-298.666667 0-102.4 17.066667-200.533333 42.666667-298.666667l12.8-42.666666 46.933333-8.533334C238.933333 140.8 375.466667 128 512 128c136.533333 0 273.066667 12.8 405.333333 34.133333l51.2 8.533334 12.8 42.666666c29.866667 98.133333 42.666667 196.266667 42.666667 298.666667 0 102.4-17.066667 200.533333-42.666667 298.666667l-12.8 42.666666-46.933333 8.533334c-136.533333 21.333333-273.066667 34.133333-409.6 34.133333-136.533333 0-273.066667-12.8-405.333333-34.133333zM140.8 256c-25.6 85.333333-34.133333 170.666667-38.4 256 0 85.333333 12.8 174.933333 38.4 256 123.733333 21.333333 247.466667 29.866667 371.2 29.866667 123.733333 0 251.733333-8.533333 371.2-29.866667 25.6-85.333333 34.133333-170.666667 38.4-256 0-85.333333-12.8-174.933333-38.4-256-123.733333-21.333333-247.466667-29.866667-371.2-29.866667-123.733333 0-251.733333 8.533333-371.2 29.866667z m273.066667 405.333333c-4.266667-4.266667-8.533333-8.533333-8.533334-12.8V358.4c0-4.266667 4.266667-12.8 8.533334-12.8 4.266667-4.266667 12.8-4.266667 17.066666 0l221.866667 145.066667c4.266667 4.266667 8.533333 8.533333 8.533333 12.8 0 4.266667-4.266667 8.533333-8.533333 12.8l-221.866667 145.066666c-4.266667 0-4.266667 4.266667-8.533333 4.266667-4.266667-4.266667-4.266667-4.266667-8.533333-4.266667z" p-id="5171" fill="#ffffff"></path></svg>